<svg width="1000" height="200" xmlns="http://www.w3.org/2000/svg" xmlns:xlink="http://www.w3.org/1999/xlink" viewBox="0 0 500 100"><mask id="crop"><path d="M0,0 h500 v72 q0,28 -28,28 h-472 z" fill="white"/></mask><defs><filter y="-5" height="52" id="blur" color-interpolation-filters="sRGB"><feDropShadow dx="0" dy="2" stdDeviation="12" flood-color="#148CC0" flood-opacity="0.5"/></filter></defs><g mask="url(#crop)"><svg x="0" y="0" xmlns="http://www.w3.org/2000/svg" xmlns:xlink="http://www.w3.org/1999/xlink" viewBox="0 0 500 100">
  <defs>
    <path id="reuse-0" fill="url(#c)" d="M0 30.76 57.6 0l57.6 30.76v70.984l-57.6 31.943L0 101.744Z"/>
    <path id="reuse-1" fill="url(#d)" d="M0 30.76 57.6 0l57.6 30.76v70.984l-57.6 31.943L0 101.744Z"/>
    <path id="reuse-2" fill="url(#e)" d="M0 31.943 57.6 0v70.984L0 102.927Z"/>
    <path id="reuse-3" fill="url(#f)" d="m0 0 57.6 39.041L0 70.984Z"/>
    <path id="reuse-4" fill="url(#g)" d="M0 31.943-57.6 0v70.984L0 102.927Z"/>
    <path id="reuse-5" fill="url(#g)" d="m0 0-57.6 39.041L0 70.984Z"/>
    <path id="reuse-6" fill="url(#c)" d="M0 30.421 56.751 0 113.5 30.421v70.2l-56.749 31.592L0 100.622Z"/>
    <path id="reuse-7" fill="url(#d)" d="M0 30.421 56.751 0 113.5 30.421v70.2l-56.749 31.592L0 100.622Z"/>
    <path id="reuse-8" fill="url(#e)" d="M0 31.591 56.751 0v70.2L0 101.792Z"/>
    <path id="reuse-9" fill="url(#f)" d="m0 0 56.751 38.611L0 70.2Z"/>
    <path id="reuse-10" fill="url(#g)" d="M0 31.591-56.751 0v70.2L0 101.792Z"/>
    <path id="reuse-11" fill="url(#g)" d="m0 0-56.751 38.611L0 70.2Z"/>
  </defs>
  <defs>
    <linearGradient id="c" x1=".5" x2=".5" y2="1" gradientUnits="objectBoundingBox">
      <stop offset="0" stop-color="#fff"/>
      <stop offset="1" stop-color="#f7fbff"/>
    </linearGradient>
    <linearGradient id="d" x1=".5" x2=".5" y2="1" gradientUnits="objectBoundingBox">
      <stop offset="0" stop-color="#d0deea"/>
      <stop offset="1" stop-color="#dae1e8"/>
    </linearGradient>
    <linearGradient id="e" x1=".5" x2=".5" y2="1" gradientUnits="objectBoundingBox">
      <stop offset="0" stop-color="#bdc2c8"/>
      <stop offset="1" stop-color="#dcedef"/>
    </linearGradient>
    <linearGradient id="f" x1=".5" x2=".5" y2="1" gradientUnits="objectBoundingBox">
      <stop offset="0" stop-color="#adbbca" stop-opacity=".702"/>
      <stop offset="1" stop-color="#e4e8e9" stop-opacity="0"/>
    </linearGradient>
    <linearGradient id="g" x1=".5" x2=".5" y2="1" gradientUnits="objectBoundingBox">
      <stop offset="0" stop-color="#7692ae"/>
      <stop offset="1" stop-color="#93b0ce"/>
    </linearGradient>
    <radialGradient id="b" cx="-.061" cy="-.082" r="1.895" gradientUnits="objectBoundingBox">
      <stop offset="0" stop-color="#002c69"/>
      <stop offset=".748" stop-color="#20569a"/>
      <stop offset="1" stop-color="#28abd8"/>
    </radialGradient>
    <clipPath id="a">
      <path d="M0 0h500v100H0z"/>
    </clipPath>
  </defs>
  <g clip-path="url(#a)">
    <path fill="url(#b)" d="M0 0h502v150H0z" transform="translate(0 -3)"/>
    <g opacity=".3" style="mix-blend-mode: color-burn; isolation: isolate">
      <g>
        <g>
          <use xlink:href="#reuse-0" transform="translate(115.645 -71.225)"/>
          <g opacity=".237">
            <g>
              <use xlink:href="#reuse-1" transform="translate(115.645 -71.225)"/>
              <use xlink:href="#reuse-2" transform="translate(173.246 -40.465)"/>
              <use xlink:href="#reuse-2" transform="translate(173.246 -40.465)"/>
              <use xlink:href="#reuse-3" transform="translate(173.246 -8.522)"/>
              <use xlink:href="#reuse-4" transform="translate(173.246 -40.465)"/>
              <use xlink:href="#reuse-5" transform="translate(173.246 -8.522)"/>
            </g>
          </g>
        </g>
        <g>
          <use xlink:href="#reuse-0" transform="translate(170.686 -40.374)"/>
          <g opacity=".237">
            <g>
              <use xlink:href="#reuse-1" transform="translate(170.686 -40.374)"/>
              <use xlink:href="#reuse-2" transform="translate(228.287 -9.614)"/>
              <use xlink:href="#reuse-2" transform="translate(228.287 -9.614)"/>
              <use xlink:href="#reuse-3" transform="translate(228.287 22.329)"/>
              <use xlink:href="#reuse-4" transform="translate(228.287 -9.614)"/>
              <use xlink:href="#reuse-5" transform="translate(228.287 22.329)"/>
            </g>
          </g>
        </g>
        <g>
          <use xlink:href="#reuse-0" transform="translate(228.287 -8.517)"/>
          <g opacity=".237">
            <g>
              <use xlink:href="#reuse-1" transform="translate(228.287 -8.517)"/>
              <use xlink:href="#reuse-2" transform="translate(285.888 22.243)"/>
              <use xlink:href="#reuse-2" transform="translate(285.888 22.243)"/>
              <use xlink:href="#reuse-3" transform="translate(285.888 54.186)"/>
              <use xlink:href="#reuse-4" transform="translate(285.888 22.243)"/>
              <use xlink:href="#reuse-5" transform="translate(285.888 54.186)"/>
            </g>
          </g>
        </g>
        <g>
          <use xlink:href="#reuse-0" transform="translate(170.686 93.313)"/>
          <g opacity=".237">
            <g>
              <use xlink:href="#reuse-1" transform="translate(170.686 93.313)"/>
              <use xlink:href="#reuse-2" transform="translate(228.287 124.073)"/>
              <use xlink:href="#reuse-2" transform="translate(228.287 124.073)"/>
              <use xlink:href="#reuse-3" transform="translate(228.287 156.016)"/>
              <use xlink:href="#reuse-4" transform="translate(228.287 124.073)"/>
              <use xlink:href="#reuse-5" transform="translate(228.287 156.016)"/>
            </g>
          </g>
        </g>
        <g>
          <use xlink:href="#reuse-0" transform="translate(0 -.822)"/>
          <g opacity=".237">
            <g>
              <use xlink:href="#reuse-1" transform="translate(0 -.822)"/>
              <use xlink:href="#reuse-2" transform="translate(57.601 29.938)"/>
              <use xlink:href="#reuse-2" transform="translate(57.601 29.938)"/>
              <use xlink:href="#reuse-3" transform="translate(57.601 61.881)"/>
              <use xlink:href="#reuse-4" transform="translate(57.601 29.938)"/>
              <use xlink:href="#reuse-5" transform="translate(57.601 61.881)"/>
            </g>
          </g>
        </g>
      </g>
      <g>
        <use xlink:href="#reuse-6" transform="translate(341.499 -9.592)"/>
        <g opacity=".237">
          <g>
            <use xlink:href="#reuse-7" transform="translate(341.499 -9.592)"/>
            <use xlink:href="#reuse-8" transform="translate(398.25 20.829)"/>
            <use xlink:href="#reuse-8" transform="translate(398.25 20.829)"/>
            <use xlink:href="#reuse-9" transform="translate(398.25 52.419)"/>
            <use xlink:href="#reuse-10" transform="translate(398.25 20.829)"/>
            <use xlink:href="#reuse-11" transform="translate(398.25 52.419)"/>
          </g>
        </g>
      </g>
      <g>
        <use xlink:href="#reuse-6" transform="translate(284.748 -109)"/>
        <g opacity=".237">
          <g>
            <use xlink:href="#reuse-7" transform="translate(284.748 -109)"/>
            <use xlink:href="#reuse-8" transform="translate(341.499 -78.579)"/>
            <use xlink:href="#reuse-8" transform="translate(341.499 -78.579)"/>
            <use xlink:href="#reuse-9" transform="translate(341.499 -46.989)"/>
            <use xlink:href="#reuse-10" transform="translate(341.499 -78.579)"/>
            <use xlink:href="#reuse-11" transform="translate(341.499 -46.989)"/>
          </g>
        </g>
      </g>
    </g>
  </g>
</svg><svg width="182.53" height="41.12" x="48.5" y="29.44" xmlns="http://www.w3.org/2000/svg" viewBox="0 0 182.53 41.12">
  <defs>
    <linearGradient id="logo-a" x1="-.061" x2=".914" y1="2.499" y2="1.52" gradientUnits="objectBoundingBox">
      <stop offset=".1" stop-color="#76b3e1"/>
      <stop offset=".3" stop-color="#dcf2fd"/>
      <stop offset="1" stop-color="#76b3e1"/>
    </linearGradient>
    <linearGradient id="logo-b" x1=".571" x2=".381" y1="1.757" y2=".412" gradientUnits="objectBoundingBox">
      <stop offset="0" stop-color="#76b3e1"/>
      <stop offset=".5" stop-color="#4377bb"/>
      <stop offset="1" stop-color="#1f3b77"/>
    </linearGradient>
    <linearGradient id="logo-c" x1=".107" x2="1.045" y1=".443" y2="-.683" gradientUnits="objectBoundingBox">
      <stop offset="0" stop-color="#315aa9"/>
      <stop offset=".5" stop-color="#518ac8"/>
      <stop offset="1" stop-color="#315aa9"/>
    </linearGradient>
    <linearGradient id="logo-d" x1=".621" x2=".178" y1="-.213" y2="-3.668" gradientUnits="objectBoundingBox">
      <stop offset="0" stop-color="#4377bb"/>
      <stop offset=".5" stop-color="#1a336b"/>
      <stop offset="1" stop-color="#1a336b"/>
    </linearGradient>
  </defs>
  <path fill="#76b3e1" d="M44.082 8.847S29.47-2.187 18.131.39l-1 .275a7.233 7.233 0 0 0-3.854 2.706 6.547 6.547 0 0 0-.416.691l-4.182 7.116 7.233 1.411a12.884 12.884 0 0 0 10.313 2.026l12.884 2.519Z"/>
  <path fill="url(#logo-a)" d="M50.763 9.091S36.151-1.943 24.812.634l-1 .275a7.233 7.233 0 0 0-3.854 2.706 6.547 6.547 0 0 0-.416.691l-4.182 7.116 7.233 1.411a12.884 12.884 0 0 0 10.313 2.026l12.884 2.519Z" opacity=".3" style="isolation:isolate" transform="translate(-6.681 -.244)"/>
  <path fill="#518ac8" d="m13.154 8.706-1 .281c-4.627 1.493-6.208 5.821-3.549 9.616a12.369 12.369 0 0 0 13.2 4.158l17.288-5.628S24.51 6.13 13.154 8.706Z"/>
  <path fill="url(#logo-b)" d="m18.868 14.833-1 .281c-4.627 1.493-6.208 5.821-3.549 9.616a12.369 12.369 0 0 0 13.2 4.158l17.288-5.628s-14.583-11.003-25.939-8.427Z" opacity=".3" style="isolation:isolate" transform="translate(-5.714 -6.127)"/>
  <path fill="url(#logo-c)" d="M36.47 33.094a12.363 12.363 0 0 0-13.224-4.187l-17.271 5.6L.54 44.181l30.94 5.271 5.546-9.868a5.867 5.867 0 0 0-.556-6.49Z" transform="translate(-.54 -11.908)"/>
  <path fill="url(#logo-d)" d="M31.035 49.621a12.381 12.381 0 0 0-13.195-4.187l-17.3 5.6s14.641 11.034 25.95 8.457l1-.275c4.632-1.47 6.214-5.8 3.549-9.593Z" transform="translate(-.54 -18.76)"/>
  <g fill="#fff">
    <!-- <text font-family="Gordita-Regular, Gordita" font-size="12" letter-spacing=".03em" transform="translate(57.665 37.12)">
      <tspan x="0" y="0">$CONTEXT</tspan>
    </text> -->
    <path d="M58.782 16.494a6.18 6.18 0 0 0 4.168 1.751c1.751 0 3.193-1.03 3.193-2.781 0-4.017-7.982-3.038-7.982-7.982 0-2.317 2.06-4.274 5-4.274a6.18 6.18 0 0 1 4.274 1.545l-.778 1.339a5.346 5.346 0 0 0-3.5-1.39 3.116 3.116 0 0 0-3.4 2.729c0 3.811 7.982 2.729 7.982 7.982 0 2.369-1.854 4.326-4.841 4.326a6.88 6.88 0 0 1-5.047-2.06ZM84.068 3.31a8.1 8.1 0 0 1 8.137 8.188 8.24 8.24 0 0 1-8.137 8.343h-.051a8.24 8.24 0 0 1-8.137-8.343v-.051a8.1 8.1 0 0 1 8.188-8.137Zm-.051 15.089a6.7 6.7 0 0 0 6.54-6.844v-.057a6.517 6.517 0 1 0-13.029-.051 6.7 6.7 0 0 0 6.488 6.952Zm17.458-14.78h1.545l-.052 14.574h7.416v1.39h-9.012Zm17.458.051h1.545l-.052 16.016h-1.546Zm11.948 0h5.15c4.789 0 8.034 2.935 8.034 8.034s-3.244 7.982-8.034 7.982h-5.15Zm4.944 14.625c3.914 0 6.54-2.317 6.592-6.592s-2.626-6.592-6.54-6.592h-3.45l-.051 13.183Zm21.717 1.39a5.289 5.289 0 0 0 3.636-1.3 4.635 4.635 0 0 0 1.473-3.656V3.861h-3.221v10.635a2.163 2.163 0 0 1-.515 1.545 1.859 1.859 0 0 1-1.426.551 2.343 2.343 0 0 1-2.209-1.777l-2.73 1.519a4.937 4.937 0 0 0 4.985 3.353Zm19.291.036a6.105 6.105 0 0 0 4.192-1.334 4.434 4.434 0 0 0 1.5-3.5 3.651 3.651 0 0 0-1.287-2.92 11.266 11.266 0 0 0-4.156-1.926 6.056 6.056 0 0 1-1.936-.809 1.323 1.323 0 0 1-.567-1.107 1.39 1.39 0 0 1 .567-1.159 2.369 2.369 0 0 1 1.5-.438 2.92 2.92 0 0 1 2.941 1.916l2.662-1.457a5.175 5.175 0 0 0-2.1-2.493 6.267 6.267 0 0 0-3.363-.881 5.721 5.721 0 0 0-3.836 1.345 4.177 4.177 0 0 0-1.591 3.373 3.863 3.863 0 0 0 1.195 2.889 9.13 9.13 0 0 0 3.8 1.9 8.5 8.5 0 0 1 2.328.937 1.2 1.2 0 0 1 .613 1.076 1.411 1.411 0 0 1-.664 1.19 2.9 2.9 0 0 1-1.7.469 3.6 3.6 0 0 1-3.4-2.178l-2.781 1.437a5.588 5.588 0 0 0 2.312 2.693 7.076 7.076 0 0 0 3.769.979Z"/>
  </g>
</svg><path d="M111.22 67.11L111.22 67.11Q108.91 67.11 107.32 65.56L107.32 65.56Q105.76 63.99 105.76 61.55L105.76 61.55Q105.76 59.09 107.37 57.52L107.37 57.52Q108.99 55.93 111.27 55.93L111.27 55.93Q113.15 55.93 114.44 56.92L114.44 56.92Q115.72 57.91 116.16 59.29L116.16 59.29L115.12 59.76Q114.72 58.59 113.76 57.82L113.76 57.82Q112.83 57.02 111.24 57.02L111.24 57.02Q109.47 57.02 108.21 58.28L108.21 58.28Q106.96 59.55 106.96 61.48L106.96 61.48Q106.96 63.44 108.18 64.73L108.18 64.73Q109.40 66.02 111.26 66.02L111.26 66.02Q112.71 66.02 113.69 65.28Q114.66 64.54 115.14 63.25L115.14 63.25L116.17 63.74Q115.70 65.14 114.38 66.13L114.38 66.13Q113.11 67.11 111.22 67.11ZM121.95 67.13L121.95 67.13Q120.33 67.13 119.21 66.01L119.21 66.01Q118.10 64.90 118.10 63.29L118.10 63.29Q118.10 61.62 119.21 60.52L119.21 60.52Q120.33 59.40 121.98 59.40L121.98 59.40Q123.59 59.40 124.71 60.52L124.71 60.52Q125.83 61.64 125.83 63.23L125.83 63.23Q125.83 64.89 124.71 66.01L124.71 66.01Q123.59 67.13 121.95 67.13ZM121.98 66.16L121.98 66.16Q123.16 66.16 123.93 65.32L123.93 65.32Q124.71 64.47 124.71 63.29L124.71 63.29Q124.71 62.09 123.93 61.22L123.93 61.22Q123.14 60.35 121.95 60.35L121.95 60.35Q120.78 60.35 119.99 61.19L119.99 61.19Q119.22 62.02 119.22 63.23L119.22 63.23Q119.22 64.45 119.99 65.31L119.99 65.31Q120.76 66.16 121.98 66.16ZM134.62 62.70L134.62 67L133.55 67L133.55 62.62Q133.55 61.64 133.06 61.01Q132.58 60.38 131.61 60.38L131.61 60.38Q130.68 60.38 130.10 61.08L130.10 61.08Q129.54 61.76 129.54 62.74L129.54 62.74L129.54 67L128.45 67L128.45 59.52L129.53 59.52L129.53 60.83Q130.00 60.10 130.57 59.74Q131.14 59.38 131.94 59.38L131.94 59.38Q133.63 59.38 134.33 60.88L134.33 60.88Q135.30 59.40 136.96 59.40L136.96 59.40Q138.28 59.40 139.00 60.22Q139.72 61.04 139.72 62.38L139.72 62.38L139.72 67L138.63 67L138.63 62.65Q138.63 61.64 138.15 61.02Q137.68 60.39 136.70 60.39L136.70 60.39Q135.76 60.39 135.18 61.06L135.18 61.06Q134.62 61.71 134.62 62.70L134.62 62.70ZM148.97 62.70L148.97 67L147.90 67L147.90 62.62Q147.90 61.64 147.41 61.01Q146.93 60.38 145.96 60.38L145.96 60.38Q145.03 60.38 144.45 61.08L144.45 61.08Q143.89 61.76 143.89 62.74L143.89 62.74L143.89 67L142.80 67L142.80 59.52L143.88 59.52L143.88 60.83Q144.35 60.10 144.92 59.74Q145.49 59.38 146.29 59.38L146.29 59.38Q147.98 59.38 148.68 60.88L148.68 60.88Q149.65 59.40 151.31 59.40L151.31 59.40Q152.63 59.40 153.35 60.22Q154.07 61.04 154.07 62.38L154.07 62.38L154.07 67L152.98 67L152.98 62.65Q152.98 61.64 152.50 61.02Q152.03 60.39 151.05 60.39L151.05 60.39Q150.11 60.39 149.53 61.06L149.53 61.06Q148.97 61.71 148.97 62.70L148.97 62.70ZM157.07 64.14L157.07 59.52L158.14 59.52L158.14 63.88Q158.14 64.91 158.68 65.53Q159.21 66.15 160.22 66.15L160.22 66.15Q161.18 66.15 161.81 65.47L161.81 65.47Q162.44 64.80 162.44 63.79L162.44 63.79L162.44 59.52L163.52 59.52L163.52 67L162.46 67L162.46 65.63Q161.60 67.14 159.89 67.14L159.89 67.14Q158.55 67.14 157.81 66.31Q157.07 65.49 157.07 64.14L157.07 64.14ZM173.18 62.38L173.18 67L172.09 67L172.09 62.65Q172.09 61.61 171.56 60.99Q171.02 60.38 170.02 60.38L170.02 60.38Q169.05 60.38 168.42 61.06L168.42 61.06Q167.79 61.74 167.79 62.74L167.79 62.74L167.79 67L166.70 67L166.70 59.52L167.78 59.52L167.78 60.90Q168.66 59.38 170.35 59.38L170.35 59.38Q171.70 59.38 172.44 60.21Q173.18 61.04 173.18 62.38L173.18 62.38ZM175.98 56.85L175.98 56.85Q175.98 56.50 176.22 56.26Q176.46 56.02 176.79 56.02L176.79 56.02Q177.14 56.02 177.38 56.26Q177.62 56.50 177.62 56.85L177.62 56.85Q177.62 57.19 177.38 57.42Q177.14 57.66 176.79 57.66L176.79 57.66Q176.46 57.66 176.22 57.42Q175.98 57.19 175.98 56.85ZM176.25 59.52L177.35 59.52L177.35 67L176.25 67L176.25 59.52ZM183.13 67.06L183.13 67.06Q181.02 67.06 181.02 65.07L181.02 65.07L181.02 60.49L179.63 60.49L179.63 59.52L181.02 59.52L181.02 57.37L182.10 57.37L182.10 59.52L183.99 59.52L183.99 60.49L182.10 60.49L182.10 65.04Q182.10 66.09 183.32 66.09L183.32 66.09Q183.78 66.09 183.99 66.03L183.99 66.03L183.99 66.94Q183.61 67.06 183.13 67.06ZM187.07 70.68L189.00 66.50L185.60 59.52L186.86 59.52L189.60 65.31L192.19 59.52L193.37 59.52L188.24 70.68L187.07 70.68Z" fill="#fff"/><path d="M295.71000000000004,72 h204.29 v28 h-204.29 q0,-28 28,-28 z" fill="#0E478C" filter="url(#blur)"/><path d="M325.93 88.82L325.93 88.82Q325.57 88.82 325.25 88.66Q324.93 88.50 324.80 88.24L324.80 88.24Q324.60 88.50 324.26 88.67Q323.92 88.83 323.62 88.83L323.62 88.83Q322.94 88.83 322.47 88.30L322.47 88.30Q322.00 87.77 322.00 87.13L322.00 87.13Q322.00 86.19 322.58 85.52L322.58 85.52Q323.17 84.83 324.04 84.83L324.04 84.83Q324.32 84.83 324.59 84.98Q324.86 85.13 324.97 85.39L324.97 85.39L325.06 84.88L326.22 84.88L325.80 87.37Q325.70 87.92 326.11 87.92L326.11 87.92Q326.52 87.92 326.88 87.43L326.88 87.43Q327.25 86.94 327.25 86.21L327.25 86.21Q327.25 85.05 326.43 84.29L326.43 84.29Q325.60 83.52 324.30 83.52L324.30 83.52Q322.93 83.52 321.94 84.51L321.94 84.51Q320.96 85.49 320.96 86.87L320.96 86.87Q320.96 88.24 321.84 89.16L321.84 89.16Q322.73 90.09 324.24 90.09L324.24 90.09Q324.75 90.09 325.32 89.91Q325.88 89.72 326.33 89.39L326.33 89.39L326.72 90Q326.31 90.37 325.59 90.59L325.59 90.59Q324.87 90.83 324.24 90.83L324.24 90.83Q322.46 90.83 321.33 89.70L321.33 89.70Q320.20 88.55 320.20 86.88L320.20 86.88Q320.20 85.17 321.40 83.99L321.40 83.99Q322.62 82.80 324.29 82.80L324.29 82.80Q325.88 82.80 326.94 83.77L326.94 83.77Q328.01 84.73 328.01 86.21L328.01 86.21Q328.01 87.35 327.39 88.09L327.39 88.09Q326.78 88.82 325.93 88.82ZM324.14 85.93L324.14 85.93Q323.76 85.93 323.47 86.26L323.47 86.26Q323.19 86.59 323.20 87.01L323.20 87.01Q323.21 87.29 323.40 87.51Q323.58 87.73 323.87 87.73L323.87 87.73Q324.25 87.73 324.53 87.40L324.53 87.40Q324.81 87.06 324.81 86.63L324.81 86.63Q324.81 86.32 324.63 86.13Q324.44 85.93 324.14 85.93ZM332.25 85.27L332.25 85.27Q333.65 85.67 334.32 86.22Q334.99 86.76 334.99 87.70L334.99 87.70Q334.99 88.78 334.23 89.45L334.23 89.45Q333.47 90.12 332.12 90.12L332.12 90.12Q331.02 90.12 330.22 89.63Q329.41 89.13 329.06 88.28L329.06 88.28L330.46 87.56Q330.69 88.07 331.14 88.36Q331.58 88.65 332.17 88.65L332.17 88.65Q332.69 88.65 333.03 88.42Q333.36 88.18 333.36 87.82L333.36 87.82Q333.36 87.47 333.05 87.28L333.05 87.28Q332.74 87.06 331.88 86.81L331.88 86.81Q330.52 86.40 329.97 85.86L329.97 85.86Q329.37 85.27 329.37 84.41L329.37 84.41Q329.37 83.38 330.17 82.72L330.17 82.72Q330.96 82.05 332.10 82.05L332.10 82.05Q333.08 82.05 333.80 82.49Q334.51 82.93 334.85 83.74L334.85 83.74L333.51 84.47Q333.11 83.51 332.03 83.51L332.03 83.51Q331.55 83.51 331.27 83.73Q330.99 83.96 330.99 84.31L330.99 84.31Q330.99 84.66 331.29 84.87Q331.58 85.08 332.25 85.27ZM336.32 86.09L336.32 86.09Q336.32 84.41 337.52 83.23L337.52 83.23Q338.71 82.05 340.41 82.05L340.41 82.05Q342.09 82.05 343.27 83.21L343.27 83.21Q344.45 84.36 344.45 86.05L344.45 86.05Q344.45 87.75 343.25 88.94L343.25 88.94Q342.07 90.12 340.37 90.12L340.37 90.12Q338.69 90.12 337.50 88.95L337.50 88.95Q336.32 87.78 336.32 86.09ZM338.68 84.34L338.68 84.34Q337.98 85.05 337.98 86.08L337.98 86.08Q337.98 87.10 338.68 87.83L338.68 87.83Q339.39 88.55 340.39 88.55L340.39 88.55Q341.40 88.55 342.10 87.83L342.10 87.83Q342.80 87.10 342.80 86.08L342.80 86.08Q342.80 85.05 342.10 84.34L342.10 84.34Q341.40 83.62 340.39 83.62L340.39 83.62Q339.39 83.62 338.68 84.34ZM346.29 90L346.29 82.17L347.90 82.17L347.90 88.46L351.25 88.46L351.25 90L346.29 90ZM352.83 82.17L354.45 82.17L354.45 90L352.83 90L352.83 82.17ZM363.60 86.07L363.60 86.07Q363.60 87.84 362.40 88.92L362.40 88.92Q361.20 90 359.15 90L359.15 90L356.78 90L356.78 82.17L359.18 82.17Q361.24 82.17 362.42 83.20L362.42 83.20Q363.60 84.23 363.60 86.07ZM361.94 86.07L361.94 86.07Q361.94 84.94 361.18 84.33L361.18 84.33Q360.42 83.70 359.22 83.70L359.22 83.70L358.40 83.70L358.40 88.47L359.20 88.47Q360.44 88.47 361.19 87.84L361.19 87.84Q361.94 87.19 361.94 86.07ZM365.19 85.98L368.49 85.98L368.49 87.52L365.19 87.52L365.19 85.98ZM376.25 84.68L376.25 84.68Q376.25 85.93 375.46 86.59L375.46 86.59Q374.67 87.24 373.39 87.24L373.39 87.24L372.16 87.24L372.16 90L370.54 90L370.54 82.17L373.45 82.17Q374.68 82.17 375.46 82.83L375.46 82.83Q376.25 83.47 376.25 84.68ZM374.62 84.72L374.62 84.72Q374.62 84.19 374.25 83.94Q373.87 83.70 373.31 83.70L373.31 83.70L372.16 83.70L372.16 85.73L373.32 85.73Q373.86 85.73 374.24 85.48Q374.62 85.23 374.62 84.72ZM377.96 90L377.96 82.17L379.57 82.17L379.57 88.46L382.92 88.46L382.92 90L377.96 90ZM389.11 86.90L389.11 82.17L390.71 82.17L390.71 86.84Q390.71 88.38 389.91 89.25Q389.11 90.11 387.55 90.11L387.55 90.11Q385.98 90.11 385.20 89.25Q384.42 88.38 384.42 86.90L384.42 86.90L384.42 82.17L386.05 82.17L386.04 86.86Q386.04 87.69 386.47 88.12Q386.89 88.55 387.56 88.55L387.56 88.55Q388.30 88.55 388.71 88.11Q389.11 87.66 389.11 86.90L389.11 86.90ZM395.42 85.27L395.42 85.27Q396.82 85.67 397.49 86.22Q398.16 86.76 398.16 87.70L398.16 87.70Q398.16 88.78 397.40 89.45L397.40 89.45Q396.64 90.12 395.29 90.12L395.29 90.12Q394.19 90.12 393.39 89.63Q392.58 89.13 392.23 88.28L392.23 88.28L393.63 87.56Q393.86 88.07 394.31 88.36Q394.75 88.65 395.34 88.65L395.34 88.65Q395.86 88.65 396.20 88.42Q396.53 88.18 396.53 87.82L396.53 87.82Q396.53 87.47 396.22 87.28L396.22 87.28Q395.91 87.06 395.05 86.81L395.05 86.81Q393.69 86.40 393.14 85.86L393.14 85.86Q392.54 85.27 392.54 84.41L392.54 84.41Q392.54 83.38 393.34 82.72L393.34 82.72Q394.13 82.05 395.27 82.05L395.27 82.05Q396.25 82.05 396.97 82.49Q397.68 82.93 398.02 83.74L398.02 83.74L396.68 84.47Q396.28 83.51 395.20 83.51L395.20 83.51Q394.72 83.51 394.44 83.73Q394.16 83.96 394.16 84.31L394.16 84.31Q394.16 84.66 394.46 84.87Q394.75 85.08 395.42 85.27ZM399.37 90.05L402.94 81.85L404.39 81.85L400.81 90.05L399.37 90.05ZM405.55 85.74L410.78 83.35L410.78 84.83L407.32 86.33L407.32 86.35L410.78 87.85L410.78 89.37L405.55 86.97L405.55 85.74ZM418.64 84.68L418.64 84.68Q418.64 85.93 417.85 86.59L417.85 86.59Q417.06 87.24 415.78 87.24L415.78 87.24L414.55 87.24L414.55 90L412.93 90L412.93 82.17L415.84 82.17Q417.07 82.17 417.85 82.83L417.85 82.83Q418.64 83.47 418.64 84.68ZM417.01 84.72L417.01 84.72Q417.01 84.19 416.64 83.94Q416.26 83.70 415.70 83.70L415.70 83.70L414.55 83.70L414.55 85.73L415.71 85.73Q416.25 85.73 416.63 85.48Q417.01 85.23 417.01 84.72ZM421.64 88.42L421.06 90L419.43 90L422.42 82.17L424.37 82.17L427.37 90L425.70 90L425.11 88.42L421.64 88.42ZM424.56 86.92L423.38 83.74L422.20 86.92L424.56 86.92ZM428.29 86.09L428.29 86.09Q428.29 84.40 429.47 83.23L429.47 83.23Q430.65 82.05 432.35 82.05L432.35 82.05Q433.54 82.05 434.52 82.67L434.52 82.67Q435.51 83.28 435.90 84.36L435.90 84.36L434.42 85.04Q434.17 84.39 433.62 84.01Q433.07 83.63 432.34 83.63L432.34 83.63Q431.33 83.63 430.65 84.34L430.65 84.34Q429.97 85.05 429.97 86.07L429.97 86.07Q429.97 87.12 430.64 87.83L430.64 87.83Q431.32 88.54 432.34 88.54L432.34 88.54Q433.06 88.54 433.62 88.14Q434.18 87.74 434.44 87.09L434.44 87.09L435.93 87.78Q435.54 88.86 434.52 89.49L434.52 89.49Q433.51 90.11 432.32 90.11L432.32 90.11Q430.60 90.11 429.45 88.96L429.45 88.96Q428.29 87.80 428.29 86.09ZM439.20 86.28L439.20 90L437.59 90L437.59 82.17L439.20 82.17L439.20 85.58L441.89 82.17L443.91 82.17L440.92 85.91L444.11 90L442.02 90L439.20 86.28ZM446.74 88.42L446.16 90L444.53 90L447.52 82.17L449.47 82.17L452.47 90L450.80 90L450.21 88.42L446.74 88.42ZM449.66 86.92L448.48 83.74L447.30 86.92L449.66 86.92ZM455.04 86.08L455.04 86.08Q455.04 87.11 455.72 87.85L455.72 87.85Q456.39 88.58 457.45 88.58L457.45 88.58Q458.23 88.58 458.78 88.22Q459.32 87.85 459.47 87.26L459.47 87.26L457.09 87.26L457.09 85.79L461.16 85.79L461.16 86.40Q461.16 87.57 460.62 88.44L460.62 88.44Q460.09 89.30 459.26 89.71Q458.43 90.12 457.45 90.12L457.45 90.12Q455.66 90.12 454.52 88.96L454.52 88.96Q453.39 87.78 453.39 86.09L453.39 86.09Q453.39 84.39 454.58 83.22L454.58 83.22Q455.78 82.05 457.47 82.05L457.47 82.05Q458.83 82.05 459.75 82.73L459.75 82.73Q460.67 83.40 460.98 84.26L460.98 84.26L459.55 84.96Q459.32 84.39 458.81 84L458.81 84Q458.30 83.58 457.45 83.58L457.45 83.58Q456.45 83.58 455.74 84.30L455.74 84.30Q455.04 85.01 455.04 86.08ZM462.94 90L462.94 82.17L468.07 82.17L468.07 83.69L464.54 83.69L464.54 85.28L467.70 85.28L467.70 86.80L464.54 86.80L464.54 88.49L468.09 88.49L468.09 90L462.94 90ZM469.90 87.86L473.36 86.37L473.36 86.34L469.90 84.84L469.90 83.35L475.13 85.74L475.13 86.97L469.90 89.37L469.90 87.86Z" fill="#fff"/></g></svg>